
<global>
amp_veltrack=0
master-volume=-25.0
</global>

<group>
ampeg_release=0.30
group_label=Sustain

<region>
hikey=a#1
hivel=127
lokey=F1
lovel=0
pitch_keycenter=a#1
sample=1_C2_Austrian_Harpsichord_8'_+_4'.opus
</region>

<region>
hikey=c2
hivel=127
lokey=b1
lovel=0
pitch_keycenter=c2
sample=3_D2_Austrian_Harpsichord_8'_+_4'.opus
</region>

<region>
hivel=127
key=c#2
lovel=0
sample=4_D#2_Austrian_Harpsichord_8'_+_4'.opus
</region>

<region>
hivel=127
key=d2
lovel=0
sample=4_E2_Austrian_Harpsichord_8'_+_4'.opus
</region>

<region>
hivel=127
key=d#2
lovel=0
sample=2_F2_Austrian_Harpsichord_8'_+_4'.opus
</region>

<region>
hivel=127
key=e2
lovel=0
sample=3_F#2_Austrian_Harpsichord_8'_+_4'.opus
</region>

<region>
hivel=127
key=f2
lovel=0
sample=3_G2_Austrian_Harpsichord_8'_+_4'.opus
</region>

<region>
hivel=127
key=f#2
lovel=0
sample=2_G#2_Austrian_Harpsichord_8'_+_4'.opus
</region>

<region>
hivel=127
key=g2
lovel=0
sample=1_A2_Austrian_Harpsichord_8'_+_4'.opus
</region>

<region>
hivel=127
key=g#2
lovel=0
sample=4_A#2_Austrian_Harpsichord_8'_+_4'.opus
</region>

<region>
hivel=127
key=a2
lovel=0
sample=2_B2_Austrian_Harpsichord_8'_+_4'.opus
</region>

<region>
hivel=127
key=a#2
lovel=0
sample=3_C3_Austrian_Harpsichord_8'_+_4'.opus
</region>

<region>
hivel=127
key=b2
lovel=0
sample=1_C#3_Austrian_Harpsichord_8'_+_4'.opus
</region>

<region>
hivel=127
key=c3
lovel=0
sample=1_D3_Austrian_Harpsichord_8'_+_4'.opus
</region>

<region>
hivel=127
key=c#3
lovel=0
sample=8_D#3_Austrian_Harpsichord_8'_+_4'.opus
</region>

<region>
hivel=127
key=d3
lovel=0
sample=3_E3_Austrian_Harpsichord_8'_+_4'.opus
</region>

<region>
hivel=127
key=d#3
lovel=0
sample=4_F3_Austrian_Harpsichord_8'_+_4'.opus
</region>

<region>
hivel=127
key=e3
lovel=0
sample=1_F#3_Austrian_Harpsichord_8'_+_4'.opus
</region>

<region>
hivel=127
key=f3
lovel=0
sample=3_G3_Austrian_Harpsichord_8'_+_4'.opus
</region>

<region>
hivel=127
key=f#3
lovel=0
sample=4_G#3_Austrian_Harpsichord_8'_+_4'.opus
</region>

<region>
hivel=127
key=g3
lovel=0
sample=2_A3_Austrian_Harpsichord_8'_+_4'.opus
</region>

<region>
hivel=127
key=g#3
lovel=0
sample=1_A#3_Austrian_Harpsichord_8'_+_4'.opus
</region>

<region>
hivel=127
key=a3
lovel=0
sample=3_B3_Austrian_Harpsichord_8'_+_4'.opus
</region>

<region>
hivel=127
key=a#3
lovel=0
sample=2_C4_Austrian_Harpsichord_8'_+_4'.opus
</region>

<region>
hivel=127
key=b3
lovel=0
sample=1_C#4_Austrian_Harpsichord_8'_+_4'.opus
</region>

<region>
hivel=127
key=c4
lovel=0
sample=3_D4_Austrian_Harpsichord_8'_+_4'.opus
</region>

<region>
hivel=127
key=c#4
lovel=0
sample=1_D#4_Austrian_Harpsichord_8'_+_4'.opus
</region>

<region>
hivel=127
key=d4
lovel=0
sample=1_E4_Austrian_Harpsichord_8'_+_4'.opus
</region>

<region>
hivel=127
key=d#4
lovel=0
sample=2_F4_Austrian_Harpsichord_8'_+_4'.opus
</region>

<region>
hivel=127
key=e4
lovel=0
sample=3_F#4_Austrian_Harpsichord_8'_+_4'.opus
</region>

<region>
hivel=127
key=f4
lovel=0
sample=2_G4_Austrian_Harpsichord_8'_+_4'.opus
</region>

<region>
hivel=127
key=f#4
lovel=0
sample=2_G#4_Austrian_Harpsichord_8'_+_4'.opus
</region>

<region>
hivel=127
key=g4
lovel=0
sample=8_A4_Austrian_Harpsichord_8'_+_4'.opus
</region>

<region>
hivel=127
key=g#4
lovel=0
sample=2_A#4_Austrian_Harpsichord_8'_+_4'.opus
</region>

<region>
hivel=127
key=a4
lovel=0
sample=8_B4_Austrian_Harpsichord_8'_+_4'.opus
</region>

<region>
hivel=127
key=a#4
lovel=0
sample=3_C5_Austrian_Harpsichord_8'_+_4'.opus
</region>

<region>
hivel=127
key=b4
lovel=0
sample=3_C#5_Austrian_Harpsichord_8'_+_4'.opus
</region>

<region>
hivel=127
key=c5
lovel=0
sample=2_D5_Austrian_Harpsichord_8'_+_4'.opus
</region>

<region>
hivel=127
key=c#5
lovel=0
sample=8_D#5_Austrian_Harpsichord_8'_+_4'.opus
</region>

<region>
hivel=127
key=d5
lovel=0
sample=2_E5_Austrian_Harpsichord_8'_+_4'.opus
</region>

<region>
hivel=127
key=d#5
lovel=0
sample=3_F5_Austrian_Harpsichord_8'_+_4'.opus
</region>

<region>
hivel=127
key=e5
lovel=0
sample=4_F#5_Austrian_Harpsichord_8'_+_4'.opus
</region>

<region>
hivel=127
key=f5
lovel=0
sample=2_G5_Austrian_Harpsichord_8'_+_4'.opus
</region>

<region>
hivel=127
key=f#5
lovel=0
sample=2_G#5_Austrian_Harpsichord_8'_+_4'.opus
</region>

<region>
hivel=127
key=g5
lovel=0
sample=1_A5_Austrian_Harpsichord_8'_+_4'.opus
</region>

<region>
hivel=127
key=g#5
lovel=0
sample=5_A#5_Austrian_Harpsichord_8'_+_4'.opus
</region>

<region>
hivel=127
key=a5
lovel=0
sample=1_B5_Austrian_Harpsichord_8'_+_4'.opus
</region>

<region>
hikey=F6
hivel=127
lokey=a#5
lovel=0
pitch_keycenter=a#5
sample=3_C6_Austrian_Harpsichord_8'_+_4'.opus
</region>
</group>

<group>
ampeg_release=0.90
group_label=Release
rt_decay=0.000000
trigger=release

<region>
hikey=a#1
hivel=127
lokey=F1
lovel=0
pitch_keycenter=a#1
sample=1_C2_Release_Austrian_Harpsichord_8'_+_4'.opus
volume=0.0
</region>

<region>
hikey=c2
hivel=127
lokey=b1
lovel=0
pitch_keycenter=c2
sample=1_D2_Release_Austrian_Harpsichord_8'_+_4'.opus
volume=0.0
</region>

<region>
hivel=127
key=c#2
lovel=0
sample=1_D#2_Release_Austrian_Harpsichord_8'_+_4'.opus
volume=0.0
</region>

<region>
hivel=127
key=d2
lovel=0
sample=4_E2_Release_Austrian_Harpsichord_8'_+_4'.opus
volume=0.0
</region>

<region>
hivel=127
key=d#2
lovel=0
sample=1_F2_Release_Austrian_Harpsichord_8'_+_4'.opus
volume=0.0
</region>

<region>
hivel=127
key=e2
lovel=0
sample=1_F#2_Release_Austrian_Harpsichord_8'_+_4'.opus
volume=0.0
</region>

<region>
hivel=127
key=f2
lovel=0
sample=1_G2_Release_Austrian_Harpsichord_8'_+_4'.opus
volume=0.0
</region>

<region>
hivel=127
key=f#2
lovel=0
sample=1_G#2_Release_Austrian_Harpsichord_8'_+_4'.opus
volume=0.0
</region>

<region>
hivel=127
key=g2
lovel=0
sample=2_A2_Release_Austrian_Harpsichord_8'_+_4'.opus
volume=0.0
</region>

<region>
hivel=127
key=g#2
lovel=0
sample=1_A#2_Release_Austrian_Harpsichord_8'_+_4'.opus
volume=0.0
</region>

<region>
hivel=127
key=a2
lovel=0
sample=1_B2_Release_Austrian_Harpsichord_8'_+_4'.opus
volume=0.0
</region>

<region>
hivel=127
key=a#2
lovel=0
sample=1_C3_Release_Austrian_Harpsichord_8'_+_4'.opus
volume=0.0
</region>

<region>
hivel=127
key=b2
lovel=0
sample=2_C#3_Release_Austrian_Harpsichord_8'_+_4'.opus
volume=0.0
</region>

<region>
hivel=127
key=c3
lovel=0
sample=4_D3_Release_Austrian_Harpsichord_8'_+_4'.opus
volume=0.0
</region>

<region>
hivel=127
key=c#3
lovel=0
sample=1_D#3_Release_Austrian_Harpsichord_8'_+_4'.opus
volume=0.0
</region>

<region>
hivel=127
key=d3
lovel=0
sample=2_E3_Release_Austrian_Harpsichord_8'_+_4'.opus
volume=0.0
</region>

<region>
hivel=127
key=d#3
lovel=0
sample=1_F3_Release_Austrian_Harpsichord_8'_+_4'.opus
volume=0.0
</region>

<region>
hivel=127
key=e3
lovel=0
sample=2_F#3_Release_Austrian_Harpsichord_8'_+_4'.opus
volume=0.0
</region>

<region>
hivel=127
key=f3
lovel=0
sample=1_G3_Release_Austrian_Harpsichord_8'_+_4'.opus
volume=0.0
</region>

<region>
hivel=127
key=f#3
lovel=0
sample=1_G#3_Release_Austrian_Harpsichord_8'_+_4'.opus
volume=0.0
</region>

<region>
hivel=127
key=g3
lovel=0
sample=1_A3_Release_Austrian_Harpsichord_8'_+_4'.opus
volume=0.0
</region>

<region>
hivel=127
key=g#3
lovel=0
sample=3_A#3_Release_Austrian_Harpsichord_8'_+_4'.opus
volume=0.0
</region>

<region>
hivel=127
key=a3
lovel=0
sample=1_B3_Release_Austrian_Harpsichord_8'_+_4'.opus
volume=0.0
</region>

<region>
hivel=127
key=a#3
lovel=0
sample=2_C4_Release_Austrian_Harpsichord_8'_+_4'.opus
volume=0.0
</region>

<region>
hivel=127
key=b3
lovel=0
sample=1_C#4_Release_Austrian_Harpsichord_8'_+_4'.opus
volume=0.0
</region>

<region>
hivel=127
key=c4
lovel=0
sample=1_D4_Release_Austrian_Harpsichord_8'_+_4'.opus
volume=0.0
</region>

<region>
hivel=127
key=c#4
lovel=0
sample=2_D#4_Release_Austrian_Harpsichord_8'_+_4'.opus
volume=0.0
</region>

<region>
hivel=127
key=d4
lovel=0
sample=1_E4_Release_Austrian_Harpsichord_8'_+_4'.opus
volume=0.0
</region>

<region>
hivel=127
key=d#4
lovel=0
sample=2_F4_Release_Austrian_Harpsichord_8'_+_4'.opus
volume=0.0
</region>

<region>
hivel=127
key=e4
lovel=0
sample=1_F#4_Release_Austrian_Harpsichord_8'_+_4'.opus
volume=0.0
</region>

<region>
hivel=127
key=f4
lovel=0
sample=4_G4_Release_Austrian_Harpsichord_8'_+_4'.opus
volume=0.0
</region>

<region>
hivel=127
key=f#4
lovel=0
sample=2_G#4_Release_Austrian_Harpsichord_8'_+_4'.opus
volume=0.0
</region>

<region>
hivel=127
key=g4
lovel=0
sample=4_A4_Release_Austrian_Harpsichord_8'_+_4'.opus
volume=0.0
</region>

<region>
hivel=127
key=g#4
lovel=0
sample=4_A#4_Release_Austrian_Harpsichord_8'_+_4'.opus
volume=0.0
</region>

<region>
hivel=127
key=a4
lovel=0
sample=4_B4_Release_Austrian_Harpsichord_8'_+_4'.opus
volume=0.0
</region>

<region>
hivel=127
key=a#4
lovel=0
sample=4_C5_Release_Austrian_Harpsichord_8'_+_4'.opus
volume=0.0
</region>

<region>
hivel=127
key=b4
lovel=0
sample=1_C#5_Release_Austrian_Harpsichord_8'_+_4'.opus
volume=0.0
</region>

<region>
hivel=127
key=c5
lovel=0
sample=1_D5_Release_Austrian_Harpsichord_8'_+_4'.opus
volume=0.0
</region>

<region>
hivel=127
key=c#5
lovel=0
sample=4_D#5_Release_Austrian_Harpsichord_8'_+_4'.opus
volume=0.0
</region>

<region>
hivel=127
key=d5
lovel=0
sample=4_E5_Release_Austrian_Harpsichord_8'_+_4'.opus
volume=0.0
</region>

<region>
hivel=127
key=d#5
lovel=0
sample=4_F5_Release_Austrian_Harpsichord_8'_+_4'.opus
volume=0.0
</region>

<region>
hivel=127
key=e5
lovel=0
sample=4_F#5_Release_Austrian_Harpsichord_8'_+_4'.opus
volume=0.0
</region>

<region>
hivel=127
key=f5
lovel=0
sample=1_G5_Release_Austrian_Harpsichord_8'_+_4'.opus
volume=0.0
</region>

<region>
hivel=127
key=f#5
lovel=0
sample=1_G#5_Release_Austrian_Harpsichord_8'_+_4'.opus
volume=0.0
</region>

<region>
hivel=127
key=g5
lovel=0
sample=1_A5_Release_Austrian_Harpsichord_8'_+_4'.opus
volume=0.0
</region>

<region>
hivel=127
key=g#5
lovel=0
sample=4_A#5_Release_Austrian_Harpsichord_8'_+_4'.opus
volume=0.0
</region>

<region>
hikey=F6
hivel=127
lokey=a5
lovel=0
pitch_keycenter=a5
sample=4_B5_Release_Austrian_Harpsichord_8'_+_4'.opus
volume=0.0
</region>
</group>
